# xmcd
#
# Track frame offsets:
#	150
#	18380
#	38665
#	55672
#	71105
#	90077
#	106088
#	124015
#	140661
#	158507
#	174150
#
# Disc length: 2562 seconds
#
# Revision: 0
# Processed by: cddbd v1.5.2PL0 Copyright (c) Steve Scherf et al.
# Submitted via: dBpowerAMP V4.0
#
DISCID=7c0a000b
DTITLE=Lilly Goodman - Sin miedo a Nada
DYEAR=2008
DGENRE=Gospel
TTITLE0=Al final
TTITLE1=Ni por un momento
TTITLE2=Inigualable sensaciòn
TTITLE3=tu amor no tiene fin
TTITLE4=Yo sin ti
TTITLE5=Si miedo a nada
TTITLE6=En momentos así
TTITLE7=Encontrarte
TTITLE8=El equipaje
TTITLE9=Demasiado para creer
TTITLE10=La fuente eres tú
EXTD=
EXTT0=
EXTT1=
EXTT2=
EXTT3=
EXTT4=
EXTT5=
EXTT6=
EXTT7=
EXTT8=
EXTT9=
EXTT10=
PLAYORDER=
